<svg xmlns="http://www.w3.org/2000/svg"  viewBox="0 0 64 64" width="256px" height="256px"><path d="M 46.804688 5.0195312 C 44.521838 5.475904 42.625444 6.1487196 41.033203 7.0996094 C 38.820101 5.984708 36.533208 5.5566406 34.332031 5.5566406 C 27.221031 5.5566406 21 10 21 10 C 21 10 17.773852 12.361429 14.65625 16.261719 C 10.58446 15.237937 7.3622811 15.019767 7.0585938 15.001953 C 6.5135938 14.972953 6.0349531 15.390406 6.0019531 15.941406 C 5.9689531 16.492406 6.3894063 16.966047 6.9414062 16.998047 C 7.0259595 17.003171 9.8919085 17.39777 13.087891 18.384766 C 11.073807 21.360963 9.3657985 24.976216 9 29 C 8.924413 29.831457 8.8875937 30.647564 8.8691406 31.457031 C 8.3028724 34.123007 6.8010398 43.839277 12.105469 54.447266 C 12.281469 54.798266 12.634953 55 13.001953 55 C 13.151953 55 13.303266 54.965531 13.447266 54.894531 C 13.941266 54.647531 14.123531 54.055734 13.894531 53.552734 C 12.422506 50.320325 11.784468 47.364652 11.560547 44.929688 C 13.57879 49.429325 16.716055 53.716055 21 58 L 53 58 C 53 58 59 52 58 40 C 57.072 28.858 55 20 45 10 C 44.395295 9.3952946 43.772596 8.8869333 43.142578 8.421875 C 44.178514 7.7929969 45.431384 7.3935243 47.197266 6.9804688 C 47.734266 6.8544688 48.088469 6.3466875 47.980469 5.8046875 C 47.871469 5.2636875 47.351687 4.9065312 46.804688 5.0195312 z M 34.332031 8.5566406 C 35.789911 8.5566406 37.137857 8.791291 38.398438 9.2382812 C 37.896129 9.775854 37.423731 10.35194 37 11 C 35.206 13.743 35.375141 15.000109 35.244141 17.912109 C 34.552141 16.052109 34.167469 15.256312 34.980469 11.195312 C 35.089469 10.653313 34.736312 10.127531 34.195312 10.019531 C 33.653312 9.9065312 33.127531 10.260734 33.019531 10.802734 C 31.137441 20.213186 35.151181 23.879352 36.220703 24.671875 C 37.884927 28.290699 40.933721 30.24423 43.822266 30.814453 C 45.304806 31.107119 46.751562 31.05327 47.998047 30.673828 C 49.244026 30.29454 50.328952 29.56824 50.892578 28.451172 L 50.892578 28.449219 C 51.185961 27.866536 51.31048 27.090534 51.115234 26.349609 C 50.919809 25.608003 50.530614 24.824899 49.894531 23.552734 C 49.793602 23.350924 49.684095 22.66362 49.605469 21.814453 C 49.560778 21.331798 49.504089 20.790558 49.402344 20.226562 C 53.091484 26.254852 54.357207 32.417914 55.009766 40.25 C 55.676766 48.251 52.936938 53.125953 51.585938 55.001953 L 22.259766 55.001953 C 14.300766 46.725953 11.126281 38.745484 11.988281 29.271484 C 12.325977 25.558399 14.041498 22.190395 16.003906 19.451172 C 17.860763 20.251257 19.560356 21.281189 20.646484 22.576172 C 20.231009 22.726953 19.82567 22.914397 19.445312 23.167969 C 17.596875 24.40026 17.041023 26.469727 16.921875 28.322266 C 16.802727 30.174805 17.051298 31.99463 17.001953 32.949219 C 16.954813 33.866294 17.270667 34.955444 18.046875 36.011719 C 18.823583 37.068677 20.179667 38 22 38 C 23.138889 38 24.221341 37.449869 25.353516 36.689453 C 26.48569 35.929038 27.631721 34.912825 28.625 33.787109 C 29.618279 32.661393 30.46114 31.435682 30.947266 30.193359 C 31.425252 28.971838 31.570283 27.616872 30.863281 26.503906 C 30.859789 26.497795 30.861057 26.490442 30.857422 26.484375 C 27.934562 21.612627 22.643358 18.809182 17.785156 17.183594 C 20.310525 14.255534 22.704838 12.469903 22.738281 12.445312 C 22.793281 12.406313 28.310031 8.5566406 34.332031 8.5566406 z M 40.953125 10.523438 C 41.622073 10.977323 42.26458 11.506511 42.878906 12.121094 C 44.122764 13.364951 45.223925 14.586521 46.222656 15.798828 C 45.138814 15.289697 43.769669 15 42 15 C 41.024033 15 39.94322 15.326215 38.925781 15.9375 C 38.931447 14.999347 39.11406 13.550396 40 12 C 40.325604 11.430107 40.639504 10.957721 40.953125 10.523438 z M 42 17 C 43.875 17 45.051667 17.352915 45.798828 17.818359 C 46.545989 18.283804 46.925882 18.864342 47.183594 19.585938 C 47.441306 20.307531 47.535658 21.159714 47.613281 21.998047 C 47.690901 22.83638 47.706401 23.649123 48.105469 24.447266 C 48.734386 25.705101 49.077316 26.463481 49.181641 26.859375 C 49.285965 27.255269 49.277462 27.21169 49.107422 27.548828 L 49.107422 27.550781 C 48.859353 28.042944 48.288484 28.495536 47.414062 28.761719 C 46.539642 29.027901 45.400523 29.0864 44.210938 28.851562 C 41.831767 28.381895 39.288663 26.799198 37.919922 23.605469 C 36.995435 21.447898 37.548535 19.963113 38.570312 18.806641 C 39.592091 17.650124 41.252156 17 42 17 z M 44.5 19 A 2.5 2.5 0 0 0 44.5 24 A 2.5 2.5 0 0 0 44.5 19 z M 22.613281 24.205078 C 23.385392 24.167348 24.222287 24.295448 25.058594 24.574219 C 26.731208 25.131757 28.324423 26.289368 29.167969 27.554688 C 29.419065 27.931331 29.441603 28.548963 29.083984 29.462891 C 28.72636 30.376818 28.006721 31.463607 27.125 32.462891 C 26.243279 33.462175 25.20181 34.383462 24.240234 35.029297 C 23.278654 35.675131 22.361111 36 22 36 C 20.820333 36 20.145993 35.489964 19.658203 34.826172 C 19.170413 34.16238 18.987685 33.252287 18.998047 33.052734 L 18.998047 33.050781 C 19.067697 31.70337 18.816869 30.023133 18.917969 28.451172 C 19.019071 26.879211 19.403125 25.59974 20.554688 24.832031 C 21.13401 24.445816 21.841171 24.242808 22.613281 24.205078 z M 21 27 A 2 2 0 0 0 21 31 A 2 2 0 0 0 21 27 z M 40.587891 31.765625 C 39.448958 31.731318 38.213948 31.816257 36.859375 32.009766 C 35.537979 32.198325 33.330259 32.445891 31.410156 33.832031 C 29.490054 35.218171 28 37.778208 28 42 C 28 47.555556 24.400391 50.199219 24.400391 50.199219 L 23.089844 51.181641 L 24.5625 51.898438 C 24.5625 51.898438 26.68438 52.933958 29.615234 53.037109 C 32.546089 53.140261 36.400108 52.280632 39.734375 48.679688 C 40.234231 48.139843 41.173457 47.423031 42.179688 46.886719 C 43.185918 46.350406 44.2795 46 45 46 C 46.0865 46 48.374217 45.903681 50.261719 45.101562 C 51.20547 44.700504 52.124204 44.084881 52.535156 43.037109 C 52.946108 41.989337 52.68352 40.722688 51.832031 39.445312 C 49.796474 36.391976 47.951242 34.240271 45.59375 32.992188 C 44.415004 32.368145 43.13268 31.993627 41.695312 31.839844 C 41.335971 31.801398 40.967535 31.777061 40.587891 31.765625 z M 40.509766 33.755859 C 40.839594 33.764443 41.156216 33.78454 41.460938 33.816406 C 41.964123 33.869028 42.428763 33.960145 42.875 34.076172 C 43.109221 34.733953 43.091258 35.415856 42.876953 36.001953 C 42.822953 36.144953 42.332406 37.385734 41.316406 37.052734 C 40.061096 36.634298 39.182655 35.169178 38.628906 33.824219 C 39.299846 33.767817 39.929559 33.74076 40.509766 33.755859 z M 35.832031 34.205078 C 35.467631 36.601627 34.544906 38.181938 33.660156 38.548828 C 33.431156 38.643828 33.116031 38.700969 32.707031 38.292969 C 32.16299 37.748928 31.921868 36.945958 31.822266 36.126953 C 32.064778 35.874521 32.31631 35.644952 32.582031 35.453125 C 33.572998 34.737737 34.748067 34.409189 35.832031 34.205078 z M 45.03125 34.980469 C 46.769523 36.02213 48.33515 37.805459 50.167969 40.554688 C 50.80998 41.517812 50.795345 41.996819 50.673828 42.306641 C 50.6285 42.422209 50.532023 42.543744 50.410156 42.666016 C 49.369075 40.327469 48.280405 39.283513 47 39.361328 C 45.343 39.464328 44.271766 41.570188 43.634766 43.492188 C 42.600766 42.042187 41.313797 40.862359 39.841797 41.193359 C 38.059797 41.596359 37.122813 44.232141 36.632812 46.744141 C 36.066812 45.820141 35.337859 45.169625 34.380859 45.140625 C 34.360859 45.140625 34.339359 45.138672 34.318359 45.138672 C 32.170753 45.138672 30.531784 48.509657 29.605469 51.03125 C 28.425951 50.981215 27.437097 50.761187 26.708984 50.548828 C 27.949707 49.296545 30 46.820579 30 42 C 30 40.577672 30.166934 39.444028 30.449219 38.527344 C 30.664807 38.951281 30.940093 39.352202 31.294922 39.707031 C 31.895922 40.308031 32.607703 40.619141 33.345703 40.619141 C 33.703703 40.619141 34.068734 40.545484 34.427734 40.396484 C 35.827734 39.816484 36.907047 38.239453 37.498047 36.064453 C 38.222047 37.300453 39.255547 38.472219 40.685547 38.949219 C 42.359547 39.507219 44.071859 38.556453 44.755859 36.689453 C 44.952792 36.149515 45.038111 35.569123 45.03125 34.980469 z M 47.123047 41.357422 C 47.131849 41.357422 47.714346 41.495249 48.617188 43.542969 C 47.596687 43.815372 46.443807 43.93597 45.619141 43.976562 C 46.149961 42.473846 46.768687 41.378749 47.123047 41.357422 z M 40.28125 43.144531 C 40.290858 43.146278 40.865163 43.038788 42.050781 44.726562 C 41.775881 44.849779 41.503831 44.979558 41.238281 45.121094 C 40.246733 45.64958 39.357104 46.283101 38.664062 46.933594 C 39.098359 44.832724 39.707438 43.273897 40.28125 43.144531 z M 34.3125 47.138672 L 34.320312 47.138672 C 34.327361 47.139553 34.928908 47.284052 35.658203 49.474609 C 34.355548 50.278161 33.061404 50.713214 31.84375 50.904297 C 32.731717 48.802762 33.760351 47.138672 34.3125 47.138672 z"/></svg>